<?xml version="1.0" encoding="UTF-8"?>
<svg id="Camada_1" data-name="Camada 1" xmlns="http://www.w3.org/2000/svg" viewBox="0 0 46 46">
  <defs>
    <style>
      .cls-1 {
        fill: #fff;
      }
    </style>
  </defs>
  <path class="cls-1" d="m23.31,21.35l-.05-.27-.67-.15c-.29-.07-.58-.13-.88-.2-.04,0-.06-.02-.08-.02,0-.02,0-.05,0-.08v-.41c0-.4,0-.82.01-1.23,0-.33-.17-.55-.49-.62-.4-.08-.8-.18-1.2-.27l-.4-.09s-.07-.02-.09-.02c0-.02,0-.05,0-.08v-.36c0-.41,0-.84.01-1.26.01-.35-.18-.58-.53-.66-.4-.09-.81-.18-1.22-.28l-.38-.09s-.04,0-.05-.01c0-.02,0-.03,0-.06v-.4c0-.42,0-.86.01-1.29,0-.32-.17-.54-.48-.61-.5-.11-1.02-.23-1.47-.34l-.15-.04s-.05-.01-.07-.02c0-.02,0-.04,0-.07v-2.07s-.61.34-.61.34l-.04.02s-.06.03-.1.06l-2.61,2.06c-3.72,2.94-7.43,5.88-11.15,8.82-.14.11-.21.24-.23.38-.02.22.09.37.15.44,1.98,2.5,4.98,6.28,8.03,10.14.04.05.17.22.39.24.02,0,.04,0,.06,0,.19,0,.33-.11.38-.15,2.77-2.2,5.55-4.4,8.32-6.59l5.34-4.23c.29-.17.27-.43.26-.53Zm-8.3-8.03l.15.04c.42.1.86.2,1.3.3,0,.37,0,.75,0,1.12v.39c0,.51.21.77.7.89l.38.09c.36.08.73.17,1.09.25,0,.39,0,.79,0,1.15v.35c0,.55.2.79.74.92l.4.09c.34.08.68.16,1.04.24,0,.36,0,.72,0,1.07v.42c0,.54.2.8.73.92.16.04.32.08.49.11l-4.4,3.49c-2.85,2.25-5.69,4.51-8.54,6.76-2.83-3.57-5.59-7.07-7.73-9.76,3.75-2.97,7.5-5.94,11.26-8.91l1.69-1.34v.51c0,.53.2.79.72.91Z"/>
  <path class="cls-1" d="m12.45,22.37l-.95-1.2c-.55-.69-1.1-1.39-1.65-2.08l-.02-.03c-.04-.06-.09-.12-.16-.17-.23-.18-.5-.19-.73-.01-.23.18-.29.45-.17.71.04.07.08.15.14.22,1.39,1.75,2.78,3.51,4.17,5.26v.02s.08.09.13.13c.13.11.27.17.41.17.06,0,.12,0,.18-.03.19-.06.33-.19.38-.37.06-.2,0-.42-.14-.61-.53-.67-1.06-1.34-1.59-2.01Zm1.28,2.48h0s-.01.04-.07.05c-.03.01-.06.01-.13-.04-.02-.02-.04-.04-.06-.07l-.02-.02c-1.39-1.75-2.78-3.51-4.17-5.26-.04-.05-.07-.1-.09-.14-.03-.06-.02-.08.03-.13.02-.02.04-.03.06-.03.02,0,.05.01.08.04.02.02.05.05.08.09l.02.03c.55.69,1.1,1.39,1.65,2.08l.95,1.2c.53.67,1.06,1.34,1.59,2.01.05.07.08.14.06.18Z"/>
  <path class="cls-1" d="m12.36,25.64c-1.39-1.75-2.78-3.51-4.17-5.26-.05-.07-.13-.16-.23-.23-.21-.14-.45-.14-.66.01-.2.14-.28.36-.22.61.03.14.11.23.17.31l2.66,3.36c.51.64,1.02,1.29,1.53,1.93h.01c.05.07.1.14.17.2.11.09.24.13.37.13.13,0,.26-.05.37-.14.22-.18.28-.45.15-.7-.04-.08-.09-.15-.14-.22Zm-.31.55s-.08.04-.13,0c-.03-.02-.06-.06-.1-.11h0c-.5-.64-.99-1.26-1.49-1.89l-2.68-3.39-.02-.03s-.07-.08-.07-.11c-.02-.07,0-.1.04-.12.02-.02.04-.03.06-.03.01,0,.03,0,.05.02.05.04.11.11.13.13,1.39,1.75,2.78,3.51,4.17,5.26.03.04.06.09.09.14.02.04.03.07-.03.12Z"/>
  <path class="cls-1" d="m11.5,17.8l-.03-.03s-.07-.09-.12-.14c-.22-.22-.54-.25-.78-.06-.23.18-.29.48-.15.74.05.09.1.16.14.21,1.38,1.74,2.76,3.49,4.14,5.23.05.06.11.14.2.21.11.09.23.13.36.13.12,0,.23-.04.35-.11.23-.15.31-.48.18-.73-.04-.08-.09-.14-.14-.2l-.05.04.05-.04-.02-.03c-.58-.73-1.16-1.46-1.74-2.2l-2.39-3.02Zm3.85,5.78h0c-.08.05-.11.03-.13,0-.05-.04-.09-.09-.13-.14-1.38-1.74-2.76-3.49-4.14-5.23-.03-.04-.07-.09-.1-.14-.04-.07-.01-.11.02-.14.02-.02.04-.02.06-.02.03,0,.06.01.08.04.03.03.05.06.08.1l2.61,3.29c.52.65,1.03,1.31,1.55,1.96l.02.03s.07.09.09.13c.02.04,0,.1-.02.11Z"/>
  <path class="cls-1" d="m45.62,24.47c-.03-.22-.18-.35-.24-.4-2.66-2.12-5.32-4.24-7.98-6.36l-5.65-4.5c-.23-.24-.48-.17-.58-.13l-.25.11v.67c0,.31,0,.61,0,.92,0,.04,0,.07,0,.09-.02,0-.05.01-.08.02l-.38.09c-.4.09-.82.19-1.23.27-.33.07-.5.29-.49.62,0,.4,0,.81,0,1.21v.44s0,.07,0,.09c-.02,0-.04.01-.08.02l-.36.08c-.4.09-.82.19-1.23.27-.34.07-.53.3-.52.66,0,.41,0,.83,0,1.24v.4s0,.04,0,.05c-.01,0-.03,0-.05.01l-.39.09c-.41.09-.84.19-1.25.28-.31.07-.49.29-.48.61,0,.5,0,1.01,0,1.51v.16s0,.06,0,.08c-.02,0-.04.01-.07.02l-2.02.46.5.56s.05.05.09.09l2.38,1.9c3.78,3.01,7.56,6.02,11.34,9.04.12.09.24.14.37.14.05,0,.11,0,.16-.03.15-.05.24-.16.29-.22,2.19-2.76,5.09-6.4,8.06-10.12.04-.05.17-.21.15-.44Zm-20.4-2.97c.38-.08.76-.17,1.1-.25l.37-.08c.5-.11.71-.38.71-.88v-.39c0-.37,0-.75,0-1.13.37-.08.74-.16,1.11-.25l.35-.08c.53-.12.73-.37.73-.93v-.42c0-.34,0-.7,0-1.06.36-.08.72-.16,1.08-.24l.37-.09c.53-.12.73-.38.73-.92,0-.17,0-.33,0-.5l4.33,3.45c2.86,2.28,5.72,4.56,8.58,6.83-2.84,3.55-5.62,7.04-7.76,9.73-3.73-2.98-7.46-5.95-11.19-8.92l-1.72-1.37.5-.11c.52-.12.72-.37.72-.91v-.16c0-.43,0-.88,0-1.33Z"/>
  <path class="cls-1" d="m33.44,24.93c-.48.6-.96,1.2-1.43,1.8l-.02.03c-.04.05-.09.12-.13.2-.13.27-.07.53.15.71.11.09.24.14.37.14s.25-.05.37-.14c.06-.05.12-.11.19-.19,1.4-1.75,2.79-3.5,4.18-5.25v-.02s.08-.09.11-.14c.15-.27.09-.48,0-.61-.1-.17-.26-.27-.45-.29-.21-.01-.41.09-.57.28-.45.56-.89,1.12-1.34,1.68l-1.43,1.8Zm3.31-3.29s.04,0,.07.05c.02.03.03.06-.01.13-.01.02-.03.05-.06.08l-.02.02c-1.39,1.75-2.79,3.5-4.18,5.25-.04.05-.08.09-.11.12-.05.04-.08.04-.13,0-.04-.03-.06-.06-.02-.14.01-.03.04-.06.07-.1l2.84-3.56c.47-.58.93-1.17,1.4-1.75.06-.07.12-.11.16-.1Z"/>
  <path class="cls-1" d="m33.47,28.32c-.09.24-.03.47.16.64.11.09.24.14.37.14.09,0,.18-.02.27-.07.13-.06.2-.16.26-.23l2.6-3.27c.53-.67,1.07-1.34,1.6-2.01h.01c.05-.07.1-.14.14-.22.12-.27.06-.54-.17-.71-.22-.17-.5-.17-.71.01-.07.06-.13.12-.19.19-1.4,1.75-2.79,3.5-4.18,5.25-.06.07-.12.16-.17.28Zm.44.17h0c.02-.05.06-.11.1-.15,1.39-1.75,2.79-3.5,4.18-5.25.04-.04.07-.08.12-.12.02-.02.04-.03.06-.03s.04,0,.06.03c.05.04.06.07.03.13-.02.03-.05.08-.08.12h0c-.55.7-1.1,1.39-1.64,2.08l-2.54,3.19-.02.03s-.07.08-.09.1c-.07.03-.09.02-.12,0-.05-.04-.05-.06-.03-.1Z"/>
  <path class="cls-1" d="m30.36,26.36c.11.09.23.13.36.13.14,0,.28-.05.39-.15.07-.06.13-.13.17-.19,1.39-1.74,2.77-3.48,4.16-5.22.05-.06.11-.14.16-.24.12-.24.07-.49-.14-.69-.2-.19-.54-.19-.75,0-.07.06-.12.13-.17.18l-.02.03c-.59.74-1.18,1.48-1.77,2.22l-2.38,2.99-.03.03s-.07.09-.11.15c-.17.26-.12.58.11.77Zm4.54-5.86l.02-.03s.07-.09.1-.12c.02-.01.04-.02.07-.02.02,0,.04,0,.05.01.07.07.05.1.04.13h0c-.03.06-.07.11-.1.15-1.39,1.74-2.77,3.48-4.16,5.22-.03.04-.07.09-.12.13-.06.06-.1.04-.14,0-.06-.05-.04-.11-.01-.15.02-.03.05-.07.08-.1l2.41-3.02c.59-.74,1.18-1.48,1.77-2.22Z"/>
</svg>