<?xml version="1.0" encoding="UTF-8"?>
<svg id="Camada_1" data-name="Camada 1" xmlns="http://www.w3.org/2000/svg" viewBox="0 0 46 46">
  <defs>
    <style>
      .cls-1 {
        fill: #fff;
      }
    </style>
  </defs>
  <path class="cls-1" d="m38.13,38.99V9.07c.41-.48.64-1.1.64-1.73,0-1.47-1.2-2.67-2.67-2.67s-2.67,1.2-2.67,2.67c0,.62.22,1.22.61,1.7-1.48,1.34-5.38,4.3-11,4.3-.08,0-.17,0-.25,0-5.35-.08-9.02-2.71-10.77-4.33.38-.48.59-1.06.59-1.67,0-1.47-1.2-2.67-2.67-2.67s-2.67,1.2-2.67,2.67c0,.63.23,1.24.64,1.73v29.93H3.34c-.24,0-.43.19-.43.43v3.14c0,.24.19.43.43.43h39.39c.24,0,.43-.19.43-.43v-3.14c0-.24-.19-.43-.43-.43h-4.59Zm-2.3-33.17c1.05-.17,1.95.72,1.78,1.78-.1.64-.62,1.15-1.26,1.26-1.05.17-1.95-.73-1.78-1.78.11-.64.62-1.15,1.25-1.25Zm1.16,9.67v23.49h-1.8V15.5h1.8Zm0-5.48v4.35h-1.8v-4.35h1.8Zm-25.03.46c1.89,1.54,5.62,3.92,10.8,4,.09,0,.18,0,.27,0,5.23,0,9.08-2.4,11.02-3.97v28.48H11.97V10.48Zm-1.77-4.65c.64.11,1.15.62,1.25,1.26.17,1.05-.73,1.95-1.78,1.77-.64-.11-1.15-.62-1.25-1.26-.17-1.05.73-1.95,1.78-1.77Zm-1.16,8.54v-4.35h1.8v4.35h-1.8Zm1.8,1.14v23.49h-1.8V15.5h1.8Zm31.05,26.37H4.18c-.08,0-.14-.06-.14-.14v-1.46c0-.08.06-.14.14-.14h37.7c.08,0,.14.06.14.14v1.46c0,.08-.06.14-.14.14Z"/>
  <path class="cls-1" d="m2.31,3.26h0c.37.62,1.01,1.02,1.73,1.09h0,0c-.62.37-1.02,1.01-1.09,1.73h0s0,0,0,0c-.37-.62-1.01-1.02-1.73-1.09h0,0c.62-.37,1.02-1.01,1.09-1.73h0Z"/>
  <path class="cls-1" d="m43.59,18.84h0c.01.72.36,1.39.95,1.81h0,0c-.72.01-1.39.36-1.81.95h0s0,0,0,0c-.01-.72-.36-1.39-.95-1.81h0,0c.72-.01,1.39-.36,1.81-.95h0Z"/>
</svg>