<?xml version="1.0" encoding="UTF-8"?>
<svg id="Camada_1" data-name="Camada 1" xmlns="http://www.w3.org/2000/svg" viewBox="0 0 46 46">
  <defs>
    <style>
      .cls-1 {
        fill: #fff;
      }
    </style>
  </defs>
  <path class="cls-1" d="m40.83,9.1H11.77c-1.24,0-2.25,1.01-2.25,2.25v12.91c0,.61.25,1.2.7,1.62-.02.03-.04.07-.06.1-.07.12-.12.22-.17.32-.19.38-.41.53-.81.53-.08,0-.16,0-.25-.02-.3-.03-.34-.1-.38-.28-.05-.26-.11-.52-.17-.77-.11-.47-.22-.92-.27-1.38-.1-.95-.14-1.87.49-2.61l.02-.02c.38-.46.42-1,.42-1.46-.01-1.33-.01-2.68,0-3.98v-.04c0-.53,0-1.05,0-1.58,0-.14,0-.29-.01-.44-.02-.25-.13-.44-.32-.53-.03-.02-.07-.03-.11-.04-.15-.04-.33,0-.47.11-.11.08-.22.15-.34.22-.42.27-.86.54-1.16,1.03-1.49,2.42-2.59,4.5-3.46,6.57-.14.33-.21.66-.2,1.01,0,.86,0,1.73,0,2.57v1.01c0,.3,0,.61,0,.92,0,.67.02,1.35-.02,2.02-.07,1.2.26,2.26,1,3.27.94,1.26,1.59,2.38,1.76,3.7.03.28.15.5.33.63.14.1.31.15.51.15.09,0,.18,0,.3-.03,1.38-.26,2.79-.51,4.16-.75.43-.08.87-.15,1.3-.23.39-.07.65-.12.81-.36.16-.24.09-.5,0-.9-.07-.27-.14-.55-.2-.82l-.02-.1c-.21-.86-.43-1.74-.66-2.61-.07-.25-.05-.46.05-.7.61-1.5,1.11-2.75,1.56-3.9h27.01c1.24,0,2.25-1.01,2.25-2.25v-12.91c0-1.24-1.01-2.25-2.25-2.25Zm-22.22,8.04h0s-.01,0-.01,0h0s.01,0,.01,0Zm-2.16,7.24c.51-.25,1.04-.49,1.55-.71.26-.11.51-.23.77-.35h.02c.36-.17.74-.35,1.11-.52.56-.27.83-.78.79-1.5,0-.13-.07-.25-.17-.36-.41-.43-.7-.93-.89-1.53-.04-.13-.13-.22-.19-.28h-.01c-.05-.06-.1-.11-.15-.15-.05-.04-.12-.1-.13-.13-.25-.51-.35-.78-.17-1.13.03-.05.08-.11.13-.17.15-.18.15-.35.12-.5-.02-.11-.04-.23-.06-.34v-.03c-.07-.32-.12-.63-.14-.94-.03-.58.2-1.09.69-1.54.54-.5,1.06-1,1.54-1.47l.1.33.29-.34.03.19.55-.37v.21l.31-.08-.08.3.3-.06-.12.23.66-.1s.07-.01.11-.02v.15l.38-.06c.07-.01.14-.04.2-.07.08.11.17.22.25.34.23.31.47.64.72.94.49.59.64,1.26.46,2.11-.03.17-.07.33-.11.49l-.1.44.17.13c.27.21.34.5.22.87-.06.18-.14.36-.23.54-.02.03-.03.06-.04.07-.3.12-.39.37-.44.53,0,.02-.01.04-.02.06-.19.5-.42.9-.71,1.22-.21.24-.32.6-.28.96.03.33.18.62.41.8.3.22.65.43,1.08.62.52.24,1.06.47,1.58.69.22.09.43.18.65.28l.22.09c.06.02.12.06.18.1.04.03.08.05.12.07.02.01.04.02.06.04.01,0,.02.02.04.02.44.28.68.69.74,1.29h-13.39c.07-.68.35-1.11.88-1.37Zm13.45-.61c.32-.15.59-.38.79-.57.28-.27.29-.6.29-.87,0-.07,0-.14,0-.2.02-.21-.13-.34-.2-.4h-.01c-.48-.43-.76-.89-.86-1.42-.03-.16-.14-.26-.2-.32,0,0-.02-.02-.03-.02-.04-.04-.08-.08-.13-.12-.02-.02-.08-.06-.09-.07l-.05-.1c-.18-.36-.33-.67-.21-1,.04-.11.09-.18.12-.2.28-.2.29-.46.27-.63-.06-.59-.12-1.27,0-1.94.04-.2.1-.41.19-.62.04-.09.1-.16.17-.21.1-.06.18-.15.22-.25.06-.02.12-.05.16-.11l.14-.17-.04-.09c.08-.08.14-.17.17-.25.06-.04.18-.14.23-.3.03-.02.05-.05.08-.07.01-.02.03-.03.05-.04.3-.04.53-.21.72-.35l.02-.02c.25-.19.5-.24.79-.16.11.03.21.03.3.02.02,0,.05,0,.07,0h.39s-.02-.15-.02-.15c.56.17,1,.4,1.28.91l.29.52.02-.04.04.13.16-.07c.04.09.1.17.16.25l-.17.12.2.14-.09.07.2.14c0,.07.01.14.04.2.03.06.06.11.11.15-.03.21-.01.4.05.58-.09.32-.05.62-.02.89.02.18.04.35.02.51-.03.22-.07.6.3.93.04.04.18.16.05.62-.04.16-.11.33-.19.49-.07.13-.1.16-.1.16h0c-.32.16-.4.43-.43.64-.07.45-.32.84-.78,1.25-.21.19-.28.4-.21.63,0,.01,0,.06,0,.08-.02.5.22.91.68,1.15.32.17.65.31.96.46.11.05.23.1.34.15.23.11.47.21.7.32h.01c.49.22,1,.45,1.49.7.27.14.47.32.62.55h-9.35c-.06-.67-.29-1.18-.69-1.57.33-.14.64-.27.96-.42Zm6.53-.19c-.11-.05-.23-.1-.35-.16-.31-.14-.62-.28-.93-.44-.23-.12-.33-.29-.32-.54,0-.06,0-.14-.01-.23,0,0,0,0,0,0,.58-.51.89-1.03.99-1.64.02-.12.04-.13.08-.15.2-.1.31-.3.39-.46.1-.2.18-.4.24-.61.15-.57.07-1.01-.25-1.29-.1-.09-.11-.14-.08-.35.03-.24,0-.45-.02-.67-.03-.26-.06-.49.02-.7.02-.05.06-.17-.02-.31-.07-.14-.05-.3.01-.52l.09-.3-.09-.03.13-.1-.15-.11.09-.06-.34-.28c-.21-.18-.34-.32-.34-.52v-.51s-.33.15-.33.15l-.29-.85-.21.37c-.53-.57-1.26-.76-1.85-.9l-.48-.12.05.34c-.42-.07-.81.04-1.17.3l-.03.02c-.15.11-.28.21-.42.23-.16.02-.31.1-.43.22-.2.07-.23.24-.24.32,0,0,0,0,0,0-.05.04-.13.1-.18.21l-.02.04s0,0,0,0c-.11.04-.2.12-.25.23h0s-.09.05-.12.08l-.14.15.05.16c-.16.12-.28.27-.37.47-.11.26-.19.52-.23.77-.13.75-.07,1.49,0,2.12,0,0,0,.01,0,.02-.21.15-.31.39-.36.52-.2.59.04,1.08.25,1.51l.05.1c.07.14.18.23.27.31.02.02.05.04.07.06.01.01.03.03.05.05h0c.13.66.47,1.22,1.04,1.72,0,.04,0,.09,0,.13,0,.22,0,.32-.08.38-.15.14-.37.34-.61.45-.39.18-.8.35-1.2.51l-.13.05c-.07-.04-.14-.08-.21-.11-.27-.12-.54-.23-.81-.35l-.08-.03c-.51-.22-1.04-.45-1.55-.68-.38-.18-.7-.35-.95-.55-.08-.06-.14-.18-.15-.33-.02-.18.03-.35.12-.45.35-.39.62-.86.83-1.44.01-.03.02-.06.03-.09,0-.03.03-.1.06-.12.19-.07.32-.25.39-.39.1-.21.19-.42.26-.62.19-.56.1-1.08-.28-1.47v-.04c.05-.17.09-.34.12-.5.21-1.05.02-1.92-.6-2.67-.24-.29-.47-.61-.7-.91v-.02c-.11-.13-.2-.26-.3-.4h0c-.1-.14-.24-.22-.4-.23-.01,0-.02,0-.03,0-.03-.06-.07-.11-.12-.14l.12-.23-.65.14.1-.37-.59.16v-.58l-.72.47-.09-.58-.46.52-.13-.42-.39.53s-.07.09-.1.14c-.05.08-.1.15-.15.2-.51.49-1.05,1.02-1.61,1.54-.63.58-.94,1.28-.9,2.06.02.35.08.7.14,1.03v.02c.02.11.04.22.06.33-.06.07-.13.15-.18.26-.36.69-.07,1.27.16,1.74.08.15.2.25.31.34h0s.07.06.09.09l.02.02s.03.03.04.04c.22.67.56,1.26,1.03,1.76,0,.42-.12.67-.42.81-.37.18-.75.35-1.12.52-.25.11-.5.22-.75.33h-.01c-.52.24-1.06.47-1.58.73-.75.37-1.17,1.03-1.26,1.97h-.78c.06-.2.1-.39.1-.59,0-.08,0-.16-.01-.24,0-.07-.03-.15-.05-.24-.12-.41-.4-.74-.79-.93-.09-.04-.18-.08-.29-.11v-13.79h27.76c.82,0,1.49.67,1.49,1.49v12.91c0,.82-.67,1.49-1.49,1.49h-1.11c-.2-.51-.56-.9-1.05-1.15-.5-.25-1.01-.48-1.52-.71-.24-.11-.47-.21-.71-.32Zm-25,7.74c.23.86.44,1.74.65,2.58l.02.1c.07.28.14.56.21.83.02.08.04.16.05.23-.07.01-.14.03-.21.04-.36.06-.73.13-1.09.19l-.22.04c-1.36.24-2.77.49-4.17.75-.04,0-.1.02-.15.02-.01,0-.02,0-.03,0,0-.02-.01-.04-.02-.08-.18-1.5-.9-2.72-1.91-4.08-.63-.85-.9-1.74-.85-2.74.04-.7.03-1.4.02-2.08,0-.3,0-.6,0-.9v-1.04c0-.83,0-1.7,0-2.54,0-.24.04-.46.14-.7.85-2.03,1.93-4.08,3.4-6.46.21-.34.53-.54.91-.78h.02s0,0,0,0c0,.52,0,1.04,0,1.58v.03c0,1.31,0,2.67,0,4.01,0,.34-.02.68-.23.94l-.02.02c-.82.98-.78,2.12-.67,3.2.05.51.17.98.28,1.48.05.23.12.49.17.74.16.82.85.89,1.08.92.12.01.23.02.34.02.72,0,1.21-.31,1.54-.98.04-.08.09-.18.15-.28.01-.02.02-.04.04-.06l.02-.03c.1-.17.21-.35.35-.55.05-.07.09-.13.14-.2l.13-.19s.05-.08.08-.12l.11-.17c.04-.06.09-.13.13-.19.3-.45.72-.59,1.14-.39.19.09.32.24.37.43.01.05.02.09.03.12,0,.04,0,.08,0,.13,0,.14-.03.28-.09.42l-.11.29c-.07.18-.14.37-.22.56-.43,1.09-.9,2.26-1.47,3.68-.16.4-.19.79-.08,1.21Zm.88-7.71c-.44.09-.84.38-1.13.81-.04.06-.08.12-.12.18l-.11.16s-.06.08-.08.12l-.13.19s-.07.1-.1.15c-.23-.27-.36-.61-.36-.97v-12.91c0-.82.67-1.49,1.49-1.49h.54v13.75Z"/>
</svg>