<?xml version="1.0" encoding="UTF-8"?>
<svg id="Camada_1" data-name="Camada 1" xmlns="http://www.w3.org/2000/svg" viewBox="0 0 46 46">
  <defs>
    <style>
      .cls-1 {
        fill: #fff;
      }
    </style>
  </defs>
  <path class="cls-1" d="m26.76,22.21l-.76-.18c-.34-.08-.68-.16-1.02-.24-.04,0-.07-.02-.1-.03,0-.02,0-.05,0-.1v-.48c0-.47,0-.95.01-1.42,0-.38-.19-.64-.56-.71-.46-.1-.93-.21-1.37-.31l-.47-.11s-.08-.02-.1-.03c0-.02,0-.05,0-.09v-.41c0-.48,0-.97.02-1.45.01-.4-.2-.67-.6-.76-.46-.1-.93-.21-1.4-.32l-.44-.1s-.04-.01-.06-.02c0-.02,0-.04,0-.07v-.46c0-.49,0-.99.01-1.48,0-.36-.19-.62-.55-.7-.56-.12-1.12-.25-1.67-.38l-.2-.05s-.06-.02-.08-.02c0-.02,0-.05,0-.09v-2.38s-.7.39-.7.39l-.04.02s-.07.04-.12.07l-2.97,2.35c-4.28,3.39-8.57,6.78-12.85,10.17-.16.12-.25.27-.26.44-.03.25.11.42.18.51,3.67,4.63,6.52,8.23,9.23,11.66.05.06.2.25.45.28.02,0,.05,0,.07,0,.22,0,.38-.13.44-.17,3.36-2.66,6.71-5.32,10.07-7.98l5.64-4.47c.33-.2.32-.5.29-.61l-.06-.31Zm-9.49-8.92l.19.04c.48.11.98.23,1.49.34,0,.43,0,.86,0,1.29v.45c0,.58.24.89.8,1.02l.45.1c.41.1.83.19,1.25.29-.01.45-.01.91-.01,1.32v.4c0,.63.23.91.85,1.06l.48.11c.38.09.78.18,1.18.27,0,.41,0,.83,0,1.23v.48c0,.62.23.92.84,1.06.19.04.37.09.56.13l-5.15,4.08c-3.24,2.57-6.49,5.14-9.73,7.71-2.58-3.26-5.33-6.74-8.88-11.22,4.23-3.35,8.46-6.7,12.69-10.04l2.2-1.74v.59c0,.61.23.91.83,1.05Z"/>
  <path class="cls-1" d="m14.41,23.82l-1.19-1.5c-.63-.8-1.26-1.6-1.9-2.39l-.03-.03c-.05-.06-.11-.14-.18-.2-.27-.21-.58-.22-.84-.02-.27.21-.34.51-.19.82.04.08.1.17.17.26,1.6,2.02,3.19,4.04,4.79,6.05l.02.02s.08.1.13.15c.15.13.31.2.48.2.07,0,.14-.01.21-.03.22-.07.37-.22.44-.42.07-.23,0-.48-.17-.71-.58-.73-1.15-1.46-1.73-2.19Zm1.37,2.74s-.01.04-.08.06c-.04.01-.07.02-.15-.05-.02-.02-.04-.05-.07-.08l-.02-.02c-1.6-2.02-3.2-4.03-4.79-6.05-.05-.06-.08-.11-.1-.16-.03-.07-.03-.1.03-.15.03-.02.05-.03.07-.03.02,0,.06.01.09.04.03.02.06.06.09.1l.03.04c.63.8,1.27,1.6,1.9,2.4l1.17,1.47c.59.74,1.17,1.48,1.75,2.22.06.08.09.16.07.21Z"/>
  <path class="cls-1" d="m14.22,27.46c-1.6-2.02-3.19-4.04-4.79-6.05-.06-.08-.15-.18-.27-.26-.24-.17-.52-.16-.76.02-.23.17-.32.41-.26.7.04.16.13.27.19.35l2.86,3.61c.65.82,1.31,1.65,1.96,2.47v.02c.07.07.13.15.21.21.13.1.27.15.42.15.15,0,.3-.06.42-.16.25-.21.32-.51.17-.8-.04-.09-.1-.18-.16-.26Zm-.36.63c-.06.05-.09.04-.15,0-.03-.03-.07-.07-.11-.12h-.01c-.65-.84-1.31-1.66-1.96-2.49l-2.83-3.58-.03-.03s-.08-.1-.08-.13c-.02-.09,0-.11.04-.14.03-.02.05-.03.07-.03.01,0,.03,0,.06.02.06.04.11.1.15.15,1.6,2.02,3.2,4.03,4.79,6.05.04.05.07.11.1.16.02.05.03.08-.03.13Z"/>
  <path class="cls-1" d="m13.23,18.44l-.03-.04c-.04-.05-.08-.11-.14-.16-.25-.26-.62-.29-.9-.07-.27.21-.34.55-.17.85.05.1.12.18.17.25,1.59,2.01,3.18,4.01,4.76,6.02.06.07.13.16.23.24.12.1.26.15.41.15.14,0,.27-.04.4-.13.26-.18.35-.55.2-.84-.05-.09-.11-.17-.16-.23l-.05.04.05-.04-.02-.03c-.67-.84-1.33-1.68-2-2.52l-2.75-3.47Zm4.43,6.65c-.09.06-.12.04-.15.01-.05-.05-.11-.11-.14-.16-1.59-2.01-3.18-4.01-4.76-6.02-.04-.05-.08-.11-.11-.16-.05-.08-.01-.13.03-.16.02-.02.05-.03.07-.03.03,0,.07.02.1.05.03.03.06.07.1.12l3,3.78c.59.75,1.19,1.5,1.78,2.25l.03.03c.04.05.08.1.1.14.02.04,0,.11-.02.13Z"/>
  <path class="cls-1" d="m45.31,30.35c-.12-.2-.24-.4-.36-.6-.36-.61-.56-1.24-.59-1.89-.01-.32-.02-.65-.02-.97,0-.17,0-.34,0-.52-.01-.94-.22-1.74-.64-2.44-.59-1-1.23-2.06-2.01-3.32-.28-.45-.74-.74-1.27-.81-.54-.07-1.08.11-1.47.48-.12.12-.23.25-.31.39-.03-.04-.06-.07-.09-.1-.59-.61-1.47-.72-2.21-.27-.25.15-.46.36-.61.6-.12-.19-.22-.35-.33-.5-.5-.68-1.42-.89-2.17-.51-.32.16-.58.4-.76.67l-.99-1.62s-.04-.06-.06-.1c-.06-.11-.13-.23-.23-.34-.33-.49-.84-.78-1.4-.8-.58-.03-1.12.23-1.5.71-.48.61-.5,1.38-.05,2.13l.75,1.23c1.13,1.86,2.29,3.78,3.45,5.67-.26-.02-.51-.16-.65-.4-.38-.62-.75-1.22-1.09-1.79-.11-.19-.26-.31-.45-.34-.27-.05-.47.12-.54.18-.67.58-.83,1.55-.37,2.31.67,1.11,1.4,2.31,2.28,3.76.2.33.46.65.79.97.54.52,1.18.84,1.79,1.15l.04.02c.42.21.9.47,1.3.84.43.39.72.89,1.04,1.42h0c.07.12.13.24.2.35h0c.14.23.43.3.66.16l7.85-4.77c.23-.14.3-.43.16-.66l-.18-.29Zm-11.72-2.45c.1-.28-.05-.52-.1-.59-1.22-1.99-2.45-4.02-3.64-5.98l-.77-1.26c-.24-.4-.25-.75-.02-1.03.18-.23.44-.35.7-.34.26.01.5.16.66.4l.04.05s.08.12.13.2c.02.04.05.08.07.13.17.28.35.57.52.85.39.65.79,1.3,1.19,1.94.04.06.07.11.11.17,0,.01.02.03.03.04.03.04.06.07.1.09.11.05.3-.08.4-.13.06-.03.12-.06.18-.09.05-.02.11-.05.16-.08.02-.01.03-.03.03-.06,0-.01,0-.03,0-.04-.05-.15-.12-.31-.16-.46-.03-.11-.04-.22-.02-.34.05-.27.25-.48.48-.6.33-.17.73-.08.95.22.18.26.35.53.52.83.1.17.22.37.34.55v.02c.05.07.13.23.33.33.16.07.34.06.49-.04.04-.03.09-.06.13-.09.05-.04.13-.07.14-.14.02-.07,0-.14-.01-.2,0-.02-.01-.03-.02-.05-.04-.1-.09-.19-.1-.3-.01-.1,0-.19.03-.29.06-.2.2-.36.37-.46.35-.21.74-.17,1.01.11.1.1.18.24.27.39.03.05.06.11.1.16l.06.1c.07.12.15.24.24.36l.79,1.1c.13.17.4.05.36-.16l-.29-1.32c-.08-.38-.01-.64.24-.88.18-.17.43-.25.68-.22.24.03.45.16.58.36.78,1.26,1.42,2.31,2,3.3.33.56.49,1.2.5,1.97,0,.16,0,.32,0,.47v.03c0,.33,0,.66.02,1.01.04.81.28,1.59.73,2.34.06.1.13.21.19.31.06.09.03.22-.07.28l-6.68,4.06c-.09.06-.22.03-.28-.07-.28-.47-.61-.97-1.07-1.39-.49-.45-1.05-.75-1.52-.99l-.04-.02c-.58-.29-1.12-.56-1.55-.98-.27-.26-.48-.52-.64-.78-.87-1.42-1.59-2.61-2.28-3.75-.15-.24-.17-.52-.06-.77.27.46.56.93.86,1.41.45.73,1.36,1.04,2.15.74.11-.04.36-.13.45-.41Z"/>
  <path class="cls-1" d="m31.15,17.2c.31.28.54.49.76.7.1.1.21.15.33.15h.02c.19,0,.31-.14.35-.19.13-.14.26-.28.4-.43l.32-.35c.14-.15.27-.29.41-.44.04-.04.16-.16.15-.35,0-.19-.13-.3-.17-.34-.25-.23-.51-.46-.76-.7-.04-.04-.17-.16-.35-.15-.12,0-.24.06-.34.17-.38.42-.77.84-1.15,1.24-.04.04-.15.16-.14.35,0,.19.13.3.17.33Zm.62-.37c.29-.31.58-.62.87-.94.15.14.31.29.46.43-.09.09-.18.19-.27.29l-.32.35c-.09.1-.18.2-.28.3-.14-.13-.29-.27-.46-.43Z"/>
  <path class="cls-1" d="m28.21,15.94h-.07c0,.06,0,.22.14.35.08.08.19.11.32.11.02,0,.04,0,.05,0,.21-.01.43-.02.64-.03l.39-.02c.16.01.29-.04.38-.15l.08-.09v-.14s0-.06,0-.09l-.02-.52c-.02-.41-.03-.82-.05-1.24,0-.14-.05-.25-.14-.33-.13-.12-.29-.11-.34-.1h-.34c-.24.02-.48.03-.72.04-.06,0-.23,0-.35.14-.08.09-.12.21-.11.35.03.54.05,1.12.07,1.71h.07Zm.56-1.52c.17,0,.34-.01.51-.02h.12c.01.34.03.69.04,1.03v.24s-.18,0-.18,0c-.15,0-.29.01-.44.02-.01-.43-.03-.86-.05-1.28Z"/>
  <path class="cls-1" d="m26.78,16.68h0c-.15-.13-.3-.27-.44-.41l-.36-.33c-.14-.13-.28-.26-.41-.39-.04-.04-.17-.17-.37-.17-.19,0-.31.14-.35.18-.19.22-.41.45-.68.74-.04.04-.16.17-.15.36,0,.19.14.31.18.34.38.35.78.72,1.22,1.13.04.04.16.15.34.15h.02c.19,0,.3-.14.34-.18.21-.24.44-.49.7-.75.04-.04.15-.16.15-.35,0-.19-.13-.3-.18-.34Zm-.62.37c-.15.16-.29.31-.42.46-.32-.3-.63-.59-.94-.87.16-.16.3-.32.42-.46.1.09.2.18.3.27l.35.33c.09.09.19.18.29.27Z"/>
</svg>