<?xml version="1.0" encoding="UTF-8"?>
<svg id="Camada_1" data-name="Camada 1" xmlns="http://www.w3.org/2000/svg" viewBox="0 0 46 46">
  <defs>
    <style>
      .cls-1 {
        fill: #fff;
      }
    </style>
  </defs>
  <path class="cls-1" d="m38.59,21.5c-.25-.45-.53-.93-.88-1.52-.41-.69-.81-1.45-.92-2.3-.12-.85-.19-1.54-.24-2.17-.11-1.49-.82-2.5-2.11-3.01-.16-.06-.32-.14-.49-.21-.19-.09-.4-.18-.61-.26-1.25-.48-2.25-1.2-3.06-2.22-.46-.57-.87-1.02-1.3-1.39-.61-.54-1.3-.79-2.07-.74-.61.04-1.18.18-1.74.31l-.1.02c-.98.23-2.02.42-3.04.23-.77-.14-1.46-.29-2.1-.45-1.37-.33-2.51.03-3.39,1.06-.15.18-.31.36-.47.53l.1.1-.11-.09c-.16.18-.33.37-.49.56-.73.87-1.56,1.49-2.52,1.89-.12.05-.23.1-.35.14-.58.24-1.18.49-1.76.83-.74.44-1.21,1.07-1.38,1.89-.11.53-.18,1.05-.2,1.54-.08,1.55-.47,2.85-1.22,3.95-.35.52-.65,1.06-.89,1.6-.35.8-.36,1.61,0,2.41.24.55.54,1.04.84,1.53.06.1.12.19.18.29.4.66.82,1.45.93,2.33.09.64.18,1.38.23,2.1.1,1.54.83,2.58,2.17,3.09.13.05.27.11.41.18.15.07.32.15.5.21,1.35.51,2.41,1.27,3.25,2.34.34.43.73.86,1.19,1.29.56.52,1.21.79,1.96.79.19,0,.38-.02.57-.05h.03c.38-.07.77-.14,1.16-.24,1.58-.43,3.04-.45,4.47-.04.55.16,1.22.32,1.97.32.61.05,1.23-.19,1.82-.7.53-.46.97-.98,1.4-1.49l.04-.05c.76-.91,1.64-1.56,2.68-1.98l.11-.05c.63-.26,1.29-.52,1.91-.89.7-.42,1.15-1.04,1.32-1.84.11-.52.18-1.06.21-1.61.08-1.52.47-2.79,1.21-3.89.25-.37.46-.76.66-1.14l.1-.17c.54-.99.54-2.04,0-3.02Zm-1,2.47l-.1.18c-.2.37-.39.72-.61,1.04-.85,1.27-1.31,2.73-1.4,4.46-.03.49-.09.97-.19,1.43-.1.49-.37.85-.8,1.11-.54.32-1.13.56-1.75.82l-.11.05c-1.2.49-2.25,1.27-3.12,2.31l-.04.05c-.41.49-.8.96-1.26,1.35-.37.32-.7.46-1.01.43h-.05c-.62,0-1.18-.13-1.68-.28-1.64-.47-3.3-.46-5.09.03-.33.09-.68.15-1.05.21h-.03c-.62.11-1.13-.04-1.56-.44-.42-.39-.77-.78-1.08-1.17-.96-1.22-2.22-2.12-3.74-2.7-.14-.05-.27-.11-.42-.18-.15-.07-.31-.14-.48-.21-.91-.35-1.37-1.02-1.44-2.1-.05-.76-.15-1.52-.24-2.18-.15-1.09-.63-2.01-1.09-2.76-.06-.1-.12-.2-.18-.3-.29-.47-.56-.92-.77-1.39-.22-.5-.22-.99,0-1.49.21-.48.48-.96.8-1.43.87-1.28,1.33-2.77,1.41-4.53.02-.44.08-.9.18-1.36.11-.51.37-.87.84-1.14.5-.3,1.04-.52,1.62-.76.12-.05.24-.1.36-.15,1.13-.48,2.09-1.2,2.94-2.2.15-.18.31-.36.47-.54.16-.18.33-.37.5-.56.45-.53.95-.78,1.58-.78.21,0,.44.03.68.09.66.16,1.37.31,2.16.46,1.23.23,2.41.02,3.51-.24l.1-.02c.53-.13,1.04-.25,1.55-.28.46-.03.85.11,1.23.45.38.33.75.73,1.16,1.26.93,1.16,2.12,2.02,3.54,2.57.18.07.35.15.54.24.17.08.35.16.54.24.87.35,1.32,1,1.39,2.04.05.65.12,1.36.24,2.24.14,1.06.62,1.97,1.07,2.73.34.58.62,1.05.86,1.49.35.64.35,1.27,0,1.93Z"/>
  <path class="cls-1" d="m33.48,18.92c-.09-.43-.23-.95-.5-1.45-.27-.5-.66-.98-1.26-1.34-1.85-1.09-3.69-1.17-5.47-.23-1.26.67-2.25,1.63-2.96,2.39-.11.12-.22.19-.3.19-.07,0-.17-.07-.28-.18-.54-.6-1.17-1.16-1.91-1.72-.71-.54-1.4-.91-2.1-1.1-1.34-.38-2.72-.23-4.09.45-.83.41-1.44,1.09-1.81,2.01-.35.87-.42,1.65-.42,2.16-.02.75.14,1.57.44,2.25.48,1.08,1.2,2.07,2.28,3.11,1.26,1.22,2.53,2.44,3.79,3.66l.09.08c1.15,1.1,2.29,2.21,3.44,3.32.18.18.38.27.57.27s.39-.09.57-.26c1.77-1.71,3.54-3.42,5.31-5.13l1.9-1.83c.67-.65,1.23-1.3,1.71-2,1-1.46,1.33-3.01.99-4.62Zm-1.01,1.22c0,.95-.3,1.86-.92,2.76-.43.63-.94,1.23-1.56,1.82l-1.91,1.84c-1.7,1.64-3.39,3.27-5.09,4.91-1.07-1.04-2.15-2.08-3.23-3.11-1.29-1.25-2.58-2.49-3.87-3.74-.97-.94-1.61-1.81-2.03-2.75-.23-.53-.36-1.17-.35-1.78,0-.58.12-1.2.34-1.74.27-.66.68-1.13,1.26-1.42.73-.36,1.42-.54,2.12-.54.38,0,.77.06,1.16.16.56.16,1.12.46,1.72.91.68.52,1.26,1.04,1.76,1.59.42.46.83.55,1.11.55h0c.4,0,.79-.19,1.13-.55.66-.7,1.55-1.58,2.67-2.16,1.43-.75,2.86-.69,4.36.2.63.37,1.01,1,1.23,2.05.07.33.1.66.1.99Z"/>
</svg>